# xmcd
#
# Track frame offsets:
#	150
#	22599
#	40509
#	59620
#	80146
#	102174
#	123957
#	144924
#	162514
#	188220
#
# Disc length: 2767 seconds
#
# Revision: 2
# Processed by: cddbd v1.5.2PL0 Copyright (c) Steve Scherf et al.
# Submitted via: EZCDAudioConverter 8.0.2.1
#
DISCID=7a0acd0a
DTITLE=Thu Hiền, Trung Đức - Nhạc CM. Anh Ở Đầu Sông, Em Cuối Sông
DYEAR=2004
DGENRE=Country
TTITLE0=Anh ở đầu sông em cuối sông
TTITLE1=Dòng song quê anh, dòng sông quê em
TTITLE2=Người đi xây hồ Kẻ Gỗ
TTITLE3=Gửiem ở cuối sông Hồng
TTITLE4=Rặng trâm bầu
TTITLE5=Tình ca Tây Bắc
TTITLE6=Tình ta biển bạc đồng xanh
TTITLE7=Trước ngày hội bắn
TTITLE8=Vàm Cỏ Đông
TTITLE9=Tình thắm duyên quê
EXTD=
EXTT0=
EXTT1=
EXTT2=
EXTT3=
EXTT4=
EXTT5=
EXTT6=
EXTT7=
EXTT8=
EXTT9=
PLAYORDER=
